<svg width="90" height="52" viewBox="0 0 90 52" fill="none" xmlns="http://www.w3.org/2000/svg">
<path fill-rule="evenodd" clip-rule="evenodd" d="M12.0018 43.3543C12.0988 38.6926 15.984 34.9049 20.6457 35.0018C25.308 35.0988 29.0957 38.984 28.9982 43.6457C28.9012 48.3074 25.016 52.0951 20.3543 51.9982C15.6926 51.9012 11.9049 48.016 12.0018 43.3543ZM16.7611 43.4513C16.7611 45.4912 18.412 47.239 20.4519 47.239C22.4911 47.239 24.1421 45.6849 24.2397 43.5482C24.2397 41.5083 22.5888 39.7605 20.5489 39.7605C18.509 39.7605 16.7611 41.4114 16.7611 43.4513Z" fill="#039F4E"/>
<path d="M23 43.5003C23 44.3286 22.3285 45 21.5 45C20.6715 45 20 44.3286 20 43.5003C20 42.672 20.6715 42 21.5 42C22.3285 42 23 42.672 23 43.5003" fill="#039F4E"/>
<path fill-rule="evenodd" clip-rule="evenodd" d="M66.0018 43.3543C66.0988 38.6926 69.984 34.9049 74.6457 35.0018C79.3074 35.0988 83.0951 38.984 82.9982 43.6457C82.9012 48.3074 79.016 52.0951 74.3543 51.9982C69.6926 51.9012 65.9049 48.016 66.0018 43.3543ZM70.7604 43.4513C70.7604 45.4912 72.4113 47.239 74.4512 47.239C76.4912 47.239 78.1421 45.6849 78.239 43.5482C78.239 41.5083 76.5881 39.7605 74.5482 39.7605C72.5083 39.7605 70.7604 41.4114 70.7604 43.4513Z" fill="#039F4E"/>
<path d="M77 43.5003C77 44.3286 76.3285 45 75.5 45C74.6715 45 74 44.3286 74 43.5003C74 42.672 74.6715 42 75.5 42C76.3285 42 77 42.672 77 43.5003" fill="#039F4E"/>
<path d="M62 42V45H64C63.9233 44.4999 63.9233 44.1002 63.9233 43.6001C63.9233 43.1 64 42.5001 64 42.0001L62 42Z" fill="#039F4E"/>
<path fill-rule="evenodd" clip-rule="evenodd" d="M88 27.2219V41.9995L84.1906 42C83.143 37.4307 79.238 34.1254 74.4761 34.1254C69.7142 34.1254 65.8092 37.5275 64.7616 42H62V14.0007L82.0954 14L88 27.2219ZM78.2855 27.9997H83.1425L83.1425 27.9995C84.1902 27.9995 84.9522 26.9301 84.6665 25.8607L81.7143 17.6944C81.3336 16.7219 80.4766 16.1387 79.5239 16.1387H65.8094C64.9524 16.1387 64.2854 16.8195 64.2854 17.6944V21.7776C64.2854 22.4585 64.8567 23.0417 65.5237 23.0417H71.1426C71.6183 23.0417 72.1903 23.2363 72.571 23.6249L77.2378 27.6111C77.5235 27.9027 77.9048 27.9997 78.2855 27.9997Z" fill="#039F4E"/>
<path d="M88.9899 42.0001H85C85.0995 42.5002 85.0995 43.1 85.0995 43.6001C85.0995 44.1002 85.0995 44.4999 85 45H89.9871V43.1C90.0873 42.5001 89.5884 42 88.99 42L88.9899 42.0001Z" fill="#039F4E"/>
<path d="M2.85356 40.7619H2.36205C1.08249 40.7619 0 41.8095 0 43.0478C0 44.286 1.08256 45.2381 2.36205 45.2381H10.4321C10.334 44.7617 10.334 44.3811 10.334 43.9048C10.334 38.381 14.9593 33.9046 20.6673 33.9046C26.3752 33.9046 31.0007 38.3808 31.0007 43.9048C31.0007 44.6668 30.9025 45.3331 30.8036 46H62L61.9993 32H2.95258V40.7619L2.85356 40.7619Z" fill="#039F4E"/>
<path fill-rule="evenodd" clip-rule="evenodd" d="M5 15H22.9049L22.9043 30H5V15ZM5.9575 29.039H21.9467L21.946 15.9619H15.4357V20.1929H12.4678V15.9619H5.9575V29.039Z" fill="#039F4E"/>
<path d="M16.9735 28H18.9188V25.1431H20L17.9461 23L16 25.1431H16.9734L16.9735 28Z" fill="#039F4E"/>
<path fill-rule="evenodd" clip-rule="evenodd" d="M23 15H40.9043V30H23V15ZM23.9575 29.039H39.9467L39.946 15.9619H33.4357V20.1929H30.4678V15.9619H23.9575V29.039Z" fill="#039F4E"/>
<path d="M35.9729 28H37.9193V25.1431H39L36.9457 23L35 25.1431H35.9728L35.9729 28Z" fill="#039F4E"/>
<path fill-rule="evenodd" clip-rule="evenodd" d="M42 15H60V30H42V15ZM42.9623 29.039H59.0372L59.0363 15.9619H52.4912V20.1929H49.5074V15.9619H42.9623V29.039Z" fill="#039F4E"/>
<path d="M55.0807 28H57.0272V25.1431H58L56.0543 23L54 25.1431H55.0807L55.0807 28Z" fill="#039F4E"/>
<path fill-rule="evenodd" clip-rule="evenodd" d="M5 0H22.9049L22.9043 15H5V0ZM5.9575 14.1348H21.9467V0.961034H15.4364L15.4357 5.19202H12.4678V0.961034H5.9575V14.1348Z" fill="#039F4E"/>
<path d="M16.9735 12H18.9188V9.14307H20L17.9461 7L16 9.14307H16.9734L16.9735 12Z" fill="#039F4E"/>
<path fill-rule="evenodd" clip-rule="evenodd" d="M23 0H40.9043V15H23V0ZM23.9575 14.1348H39.9467L39.946 0.961034H33.4357V5.19202H30.4678V0.961034H23.9575V14.1348Z" fill="#039F4E"/>
<path d="M35.9729 12H37.9193V9.14307H39L36.9457 7L35 9.14307H35.9728L35.9729 12Z" fill="#039F4E"/>
<path fill-rule="evenodd" clip-rule="evenodd" d="M42 0H60V15H42V0ZM42.9623 14.1348H59.0372L59.0363 0.961034H52.4912V5.19202H49.5074V0.961034H42.9623V14.1348Z" fill="#039F4E"/>
<path d="M55.0807 12H57.0272V9.14307H58L56.0543 7L54 9.14307H55.0807L55.0807 12Z" fill="#039F4E"/>
</svg>
